<?xml version="1.0" encoding="utf-8"?>
<svg version="1.1" id="pravaler" xmlns="http://www.w3.org/2000/svg" xmlns:xlink="http://www.w3.org/1999/xlink" x="0px" y="0px" viewBox="0 0 166 61.5" style="enable-background:new 0 0 166 61.5;" xml:space="preserve">
<style type="text/css"> .color{fill:#FF6315;} </style>
<path id="losango" class="color" d="M156.2,0L63.3,24.9l9.8,36.6L166,36.6L156.2,0z"/>
<path id="letra_r_2" d="M153.2,24.8c-2.9,0-4.9,1-5.9,3.3h-0.6v-3.2h-4.9v18.2l5.1-1.4v-5.9c0-3.9,2.3-6.2,6.4-6.2h1.5v-4.8L153.2,24.8z"/>
<path id="letra_e" d="M128.3,24.4c-6.2,0-10.4,4.4-10.4,11c0,6.5,4.2,10.8,10.4,10.8c5.1,0,8.7-2.3,10-6.9h-4.9c-0.9,1.7-2.7,2.7-4.6,2.5c-3,0.2-5.7-2-5.9-5.1c0-0.1,0-0.1,0-0.2h15.7v-1.4C138.6,29.8,135.4,24.4,128.3,24.4z M128.3,28.5c2.6-0.2,4.9,1.7,5.1,4.3c0,0.1,0,0.3,0,0.5H123C123.2,30.5,125.6,28.5,128.3,28.5L128.3,28.5z"/>
<rect id="letra_l" x="109.8" y="17.3" width="5.1" height="28.3"/>
<path id="letra_a_2" d="M101.2,28h-0.6c-1.3-2.4-3.4-3.7-6.9-3.7c-5.8,0-9.4,4.8-9.4,10.8c0,6.1,3.7,11,9.3,11c3.8,0,5.7-1.4,7-3.7h0.6v3.2h5V24.9h-5V28z M95,41.7c-3.4,0-5.7-2.6-5.7-6.4s2.3-6.4,5.7-6.4c3.4,0,5.7,2.9,5.7,6.4C100.8,39.1,98.5,41.7,95,41.7L95,41.7z"/>
<path id="letra_v" d="M73.9,42.3h-0.7l-4.4-17.4h-5.5l5.6,20.8H78l5.6-20.8h-5.3L73.9,42.3z"/>
<path id="letra_a" d="M55.9,28h-0.6c-1.3-2.4-3.4-3.7-6.9-3.7c-5.8,0-9.4,4.8-9.4,10.8c0,6.1,3.7,11,9.3,11c3.8,0,5.7-1.4,7-3.7h0.6v3.2h5V24.9h-5C55.9,24.9,55.9,28,55.9,28z M49.8,41.7c-3.4,0-5.7-2.6-5.7-6.4s2.3-6.4,5.7-6.4s5.7,2.9,5.7,6.4C55.5,39.1,53.2,41.7,49.8,41.7L49.8,41.7z"/>
<path id="letra_r" d="M30.5,28h-0.6v-3.2H25v20.8h5v-9.9c0-3.9,2.3-6.2,6.4-6.2H38v-4.8h-1.6C33.4,24.8,31.4,25.8,30.5,28z"/>
<path id="letra_p" d="M12.6,24.4c-3.8,0-5.7,1.4-7,3.7H5v-3.2H0v30h5V42.5h0.6c1.3,2.4,3.4,3.7,6.9,3.7c5.8,0,9.4-4.8,9.4-10.8C21.9,29.3,18.3,24.4,12.6,24.4z M11.1,41.7c-3.4,0-5.7-2.9-5.7-6.4c0-3.8,2.3-6.4,5.7-6.4s5.7,2.6,5.7,6.4S14.5,41.7,11.1,41.7L11.1,41.7z"/>
</svg>
